<svg width="2593" height="1175" viewBox="0 0 2593 1175" fill="none" xmlns="http://www.w3.org/2000/svg">
<path d="M766.319 408.233L610.476 1013.05L161.505 564.076L766.319 408.233Z" fill="#5A2BCF"/>
<path d="M915.337 259.213L759.494 864.027L310.523 415.056L915.337 259.213Z" fill="#20C997" fill-opacity="0.8"/>
<mask id="path-3-outside-1_605_1088" maskUnits="userSpaceOnUse" x="1114" y="348" width="1263" height="427" fill="black">
<rect fill="white" x="1114" y="348" width="1263" height="427"/>
<path d="M1116.72 773V373H1274.53C1304.74 373 1330.52 378.404 1351.87 389.211C1373.36 399.888 1389.7 415.057 1400.9 434.719C1412.23 454.25 1417.89 477.232 1417.89 503.664C1417.89 530.227 1412.16 553.078 1400.7 572.219C1389.24 591.229 1372.64 605.812 1350.9 615.969C1329.28 626.125 1303.11 631.203 1272.38 631.203H1166.72V563.234H1258.71C1274.86 563.234 1288.27 561.021 1298.94 556.594C1309.62 552.167 1317.56 545.526 1322.77 536.672C1328.11 527.818 1330.78 516.815 1330.78 503.664C1330.78 490.383 1328.11 479.185 1322.77 470.07C1317.56 460.956 1309.56 454.055 1298.75 449.367C1288.07 444.549 1274.6 442.141 1258.32 442.141H1201.29V773H1116.72ZM1332.73 590.969L1432.15 773H1338.79L1241.52 590.969H1332.73ZM1476.09 773V473H1559.3V773H1476.09ZM1517.89 434.328C1505.52 434.328 1494.91 430.227 1486.05 422.023C1477.33 413.69 1472.97 403.729 1472.97 392.141C1472.97 380.682 1477.33 370.852 1486.05 362.648C1494.91 354.315 1505.52 350.148 1517.89 350.148C1530.26 350.148 1540.81 354.315 1549.53 362.648C1558.39 370.852 1562.81 380.682 1562.81 392.141C1562.81 403.729 1558.39 413.69 1549.53 422.023C1540.81 430.227 1530.26 434.328 1517.89 434.328ZM1905.63 473L1800.75 773H1707L1602.12 473H1690.01L1752.31 687.648H1755.44L1817.55 473H1905.63ZM1948.21 773V473H2031.42V773H1948.21ZM1990.01 434.328C1977.64 434.328 1967.03 430.227 1958.17 422.023C1949.45 413.69 1945.09 403.729 1945.09 392.141C1945.09 380.682 1949.45 370.852 1958.17 362.648C1967.03 354.315 1977.64 350.148 1990.01 350.148C2002.38 350.148 2012.93 354.315 2021.65 362.648C2030.5 370.852 2034.93 380.682 2034.93 392.141C2034.93 403.729 2030.5 413.69 2021.65 422.023C2012.93 430.227 2002.38 434.328 1990.01 434.328ZM2181.27 599.563V773H2098.07V473H2177.36V525.93H2180.88C2187.52 508.482 2198.65 494.68 2214.28 484.523C2229.9 474.237 2248.85 469.094 2271.11 469.094C2291.95 469.094 2310.11 473.651 2325.61 482.766C2341.1 491.88 2353.14 504.901 2361.74 521.828C2370.33 538.625 2374.63 558.677 2374.63 581.984V773H2291.43V596.828C2291.56 578.469 2286.87 564.146 2277.36 553.859C2267.86 543.443 2254.77 538.234 2238.11 538.234C2226.91 538.234 2217.01 540.643 2208.42 545.461C2199.95 550.279 2193.31 557.31 2188.5 566.555C2183.81 575.669 2181.4 586.672 2181.27 599.563Z"/>
</mask>
<path d="M1116.72 773V373H1274.53C1304.74 373 1330.52 378.404 1351.87 389.211C1373.36 399.888 1389.7 415.057 1400.9 434.719C1412.23 454.25 1417.89 477.232 1417.89 503.664C1417.89 530.227 1412.16 553.078 1400.7 572.219C1389.24 591.229 1372.64 605.812 1350.9 615.969C1329.28 626.125 1303.11 631.203 1272.38 631.203H1166.72V563.234H1258.71C1274.86 563.234 1288.27 561.021 1298.94 556.594C1309.62 552.167 1317.56 545.526 1322.77 536.672C1328.11 527.818 1330.78 516.815 1330.78 503.664C1330.78 490.383 1328.11 479.185 1322.77 470.07C1317.56 460.956 1309.56 454.055 1298.75 449.367C1288.07 444.549 1274.6 442.141 1258.32 442.141H1201.29V773H1116.72ZM1332.73 590.969L1432.15 773H1338.79L1241.52 590.969H1332.73ZM1476.09 773V473H1559.3V773H1476.09ZM1517.89 434.328C1505.52 434.328 1494.91 430.227 1486.05 422.023C1477.33 413.69 1472.97 403.729 1472.97 392.141C1472.97 380.682 1477.33 370.852 1486.05 362.648C1494.91 354.315 1505.52 350.148 1517.89 350.148C1530.26 350.148 1540.81 354.315 1549.53 362.648C1558.39 370.852 1562.81 380.682 1562.81 392.141C1562.81 403.729 1558.39 413.69 1549.53 422.023C1540.81 430.227 1530.26 434.328 1517.89 434.328ZM1905.63 473L1800.75 773H1707L1602.12 473H1690.01L1752.31 687.648H1755.44L1817.55 473H1905.63ZM1948.21 773V473H2031.42V773H1948.21ZM1990.01 434.328C1977.64 434.328 1967.03 430.227 1958.17 422.023C1949.45 413.69 1945.09 403.729 1945.09 392.141C1945.09 380.682 1949.45 370.852 1958.17 362.648C1967.03 354.315 1977.64 350.148 1990.01 350.148C2002.38 350.148 2012.93 354.315 2021.65 362.648C2030.5 370.852 2034.93 380.682 2034.93 392.141C2034.93 403.729 2030.5 413.69 2021.65 422.023C2012.93 430.227 2002.38 434.328 1990.01 434.328ZM2181.27 599.563V773H2098.07V473H2177.36V525.93H2180.88C2187.52 508.482 2198.65 494.68 2214.28 484.523C2229.9 474.237 2248.85 469.094 2271.11 469.094C2291.95 469.094 2310.11 473.651 2325.61 482.766C2341.1 491.88 2353.14 504.901 2361.74 521.828C2370.33 538.625 2374.63 558.677 2374.63 581.984V773H2291.43V596.828C2291.56 578.469 2286.87 564.146 2277.36 553.859C2267.86 543.443 2254.77 538.234 2238.11 538.234C2226.91 538.234 2217.01 540.643 2208.42 545.461C2199.95 550.279 2193.31 557.31 2188.5 566.555C2183.81 575.669 2181.4 586.672 2181.27 599.563Z" fill="white"/>
<path d="M1116.72 773H1114.72V775H1116.72V773ZM1116.72 373V371H1114.72V373H1116.72ZM1351.87 389.211L1350.97 390.995L1350.98 390.999L1350.98 391.002L1351.87 389.211ZM1400.9 434.719L1399.16 435.709L1399.16 435.715L1399.17 435.722L1400.9 434.719ZM1400.7 572.219L1402.42 573.251L1402.42 573.246L1400.7 572.219ZM1350.9 615.969L1350.05 614.157L1350.05 614.159L1350.9 615.969ZM1166.72 631.203H1164.72V633.203H1166.72V631.203ZM1166.72 563.234V561.234H1164.72V563.234H1166.72ZM1298.94 556.594L1299.71 558.441L1299.71 558.441L1298.94 556.594ZM1322.77 536.672L1321.06 535.639L1321.05 535.648L1321.05 535.658L1322.77 536.672ZM1322.77 470.07L1321.04 471.063L1321.04 471.072L1321.05 471.081L1322.77 470.07ZM1298.75 449.367L1297.93 451.19L1297.94 451.196L1297.95 451.202L1298.75 449.367ZM1201.29 442.141V440.141H1199.29V442.141H1201.29ZM1201.29 773V775H1203.29V773H1201.29ZM1332.73 590.969L1334.49 590.01L1333.92 588.969H1332.73V590.969ZM1432.15 773V775H1435.52L1433.9 772.041L1432.15 773ZM1338.79 773L1337.02 773.943L1337.59 775H1338.79V773ZM1241.52 590.969V588.969H1238.19L1239.76 591.911L1241.52 590.969ZM1118.72 773V373H1114.72V773H1118.72ZM1116.72 375H1274.53V371H1116.72V375ZM1274.53 375C1304.51 375 1329.96 380.362 1350.97 390.995L1352.78 387.426C1331.08 376.445 1304.97 371 1274.53 371V375ZM1350.98 391.002C1372.14 401.513 1388.17 416.414 1399.16 435.709L1402.64 433.729C1391.23 413.701 1374.58 398.263 1352.76 387.42L1350.98 391.002ZM1399.17 435.722C1410.29 454.9 1415.89 477.523 1415.89 503.664H1419.89C1419.89 476.94 1414.16 453.6 1402.63 433.715L1399.17 435.722ZM1415.89 503.664C1415.89 529.934 1410.23 552.416 1398.99 571.191L1402.42 573.246C1414.1 553.74 1419.89 530.519 1419.89 503.664H1415.89ZM1398.99 571.186C1387.75 589.829 1371.47 604.154 1350.05 614.157L1351.74 617.781C1373.82 607.471 1390.74 592.63 1402.42 573.251L1398.99 571.186ZM1350.05 614.159C1328.76 624.159 1302.9 629.203 1272.38 629.203V633.203C1303.32 633.203 1329.8 628.091 1351.75 617.779L1350.05 614.159ZM1272.38 629.203H1166.72V633.203H1272.38V629.203ZM1168.72 631.203V563.234H1164.72V631.203H1168.72ZM1166.72 565.234H1258.71V561.234H1166.72V565.234ZM1258.71 565.234C1275.02 565.234 1288.72 563 1299.71 558.441L1298.18 554.746C1287.82 559.041 1274.69 561.234 1258.71 561.234V565.234ZM1299.71 558.441C1310.74 553.87 1319.04 546.961 1324.5 537.686L1321.05 535.658C1316.09 544.091 1308.51 550.464 1298.18 554.746L1299.71 558.441ZM1324.49 537.705C1330.06 528.465 1332.78 517.081 1332.78 503.664H1328.78C1328.78 516.549 1326.17 527.171 1321.06 535.639L1324.49 537.705ZM1332.78 503.664C1332.78 490.118 1330.06 478.55 1324.5 469.06L1321.05 471.081C1326.17 479.82 1328.78 490.648 1328.78 503.664H1332.78ZM1324.51 469.078C1319.06 459.543 1310.7 452.37 1299.55 447.532L1297.95 451.202C1308.42 455.74 1316.07 462.368 1321.04 471.063L1324.51 469.078ZM1299.57 447.544C1288.56 442.574 1274.78 440.141 1258.32 440.141V444.141C1274.42 444.141 1287.59 446.525 1297.93 451.19L1299.57 447.544ZM1258.32 440.141H1201.29V444.141H1258.32V440.141ZM1199.29 442.141V773H1203.29V442.141H1199.29ZM1201.29 771H1116.72V775H1201.29V771ZM1330.98 591.927L1430.39 773.959L1433.9 772.041L1334.49 590.01L1330.98 591.927ZM1432.15 771H1338.79V775H1432.15V771ZM1340.55 772.057L1243.29 590.026L1239.76 591.911L1337.02 773.943L1340.55 772.057ZM1241.52 592.969H1332.73V588.969H1241.52V592.969ZM1476.09 773H1474.09V775H1476.09V773ZM1476.09 473V471H1474.09V473H1476.09ZM1559.3 473H1561.3V471H1559.3V473ZM1559.3 773V775H1561.3V773H1559.3ZM1486.05 422.023L1484.67 423.47L1484.68 423.48L1484.7 423.491L1486.05 422.023ZM1486.05 362.648L1487.42 364.105L1487.43 364.105L1486.05 362.648ZM1549.53 362.648L1548.15 364.095L1548.16 364.105L1548.17 364.116L1549.53 362.648ZM1549.53 422.023L1550.9 423.48L1550.9 423.48L1549.53 422.023ZM1478.09 773V473H1474.09V773H1478.09ZM1476.09 475H1559.3V471H1476.09V475ZM1557.3 473V773H1561.3V473H1557.3ZM1559.3 771H1476.09V775H1559.3V771ZM1517.89 432.328C1506.01 432.328 1495.89 428.408 1487.41 420.556L1484.7 423.491C1493.93 432.046 1505.03 436.328 1517.89 436.328V432.328ZM1487.44 420.577C1479.09 412.604 1474.97 403.158 1474.97 392.141H1470.97C1470.97 404.3 1475.57 414.776 1484.67 423.47L1487.44 420.577ZM1474.97 392.141C1474.97 381.261 1479.08 371.95 1487.42 364.105L1484.68 361.191C1475.58 369.753 1470.97 380.103 1470.97 392.141H1474.97ZM1487.43 364.105C1495.9 356.127 1506.02 352.148 1517.89 352.148V348.148C1505.02 348.148 1493.92 352.503 1484.68 361.192L1487.43 364.105ZM1517.89 352.148C1529.76 352.148 1539.81 356.127 1548.15 364.095L1550.91 361.202C1541.81 352.504 1530.76 348.148 1517.89 348.148V352.148ZM1548.17 364.116C1556.64 371.963 1560.81 381.272 1560.81 392.141H1564.81C1564.81 380.093 1560.13 369.74 1550.89 361.181L1548.17 364.116ZM1560.81 392.141C1560.81 403.148 1556.63 412.591 1548.16 420.567L1550.9 423.48C1560.14 414.789 1564.81 404.31 1564.81 392.141H1560.81ZM1548.16 420.566C1539.82 428.408 1529.77 432.328 1517.89 432.328V436.328C1530.75 436.328 1541.79 432.045 1550.9 423.48L1548.16 420.566ZM1905.63 473L1907.52 473.66L1908.45 471H1905.63V473ZM1800.75 773V775H1802.17L1802.64 773.66L1800.75 773ZM1707 773L1705.11 773.66L1705.58 775H1707V773ZM1602.12 473V471H1599.3L1600.23 473.66L1602.12 473ZM1690.01 473L1691.93 472.442L1691.51 471H1690.01V473ZM1752.31 687.648L1750.39 688.206L1750.81 689.648H1752.31V687.648ZM1755.44 687.648V689.648H1756.94L1757.36 688.204L1755.44 687.648ZM1817.55 473V471H1816.05L1815.63 472.444L1817.55 473ZM1903.75 472.34L1798.86 772.34L1802.64 773.66L1907.52 473.66L1903.75 472.34ZM1800.75 771H1707V775H1800.75V771ZM1708.89 772.34L1604.01 472.34L1600.23 473.66L1705.11 773.66L1708.89 772.34ZM1602.12 475H1690.01V471H1602.12V475ZM1688.09 473.558L1750.39 688.206L1754.23 687.091L1691.93 472.442L1688.09 473.558ZM1752.31 689.648H1755.44V685.648H1752.31V689.648ZM1757.36 688.204L1819.47 473.556L1815.63 472.444L1753.52 687.093L1757.36 688.204ZM1817.55 475H1905.63V471H1817.55V475ZM1948.21 773H1946.21V775H1948.21V773ZM1948.21 473V471H1946.21V473H1948.21ZM2031.42 473H2033.42V471H2031.42V473ZM2031.42 773V775H2033.42V773H2031.42ZM1958.17 422.023L1956.79 423.47L1956.8 423.48L1956.81 423.491L1958.17 422.023ZM1958.17 362.648L1959.54 364.105L1959.54 364.105L1958.17 362.648ZM2021.65 362.648L2020.27 364.095L2020.28 364.105L2020.29 364.116L2021.65 362.648ZM2021.65 422.023L2023.02 423.48L2023.02 423.48L2021.65 422.023ZM1950.21 773V473H1946.21V773H1950.21ZM1948.21 475H2031.42V471H1948.21V475ZM2029.42 473V773H2033.42V473H2029.42ZM2031.42 771H1948.21V775H2031.42V771ZM1990.01 432.328C1978.13 432.328 1968.01 428.408 1959.53 420.556L1956.81 423.491C1966.05 432.046 1977.15 436.328 1990.01 436.328V432.328ZM1959.55 420.577C1951.21 412.604 1947.09 403.158 1947.09 392.141H1943.09C1943.09 404.3 1947.69 414.776 1956.79 423.47L1959.55 420.577ZM1947.09 392.141C1947.09 381.261 1951.2 371.95 1959.54 364.105L1956.8 361.191C1947.7 369.753 1943.09 380.103 1943.09 392.141H1947.09ZM1959.54 364.105C1968.02 356.127 1978.14 352.148 1990.01 352.148V348.148C1977.14 348.148 1966.03 352.503 1956.8 361.192L1959.54 364.105ZM1990.01 352.148C2001.88 352.148 2011.93 356.127 2020.27 364.095L2023.03 361.202C2013.93 352.504 2002.88 348.148 1990.01 348.148V352.148ZM2020.29 364.116C2028.76 371.963 2032.93 381.272 2032.93 392.141H2036.93C2036.93 380.093 2032.25 369.74 2023.01 361.181L2020.29 364.116ZM2032.93 392.141C2032.93 403.148 2028.75 412.591 2020.28 420.567L2023.02 423.48C2032.25 414.789 2036.93 404.31 2036.93 392.141H2032.93ZM2020.28 420.566C2011.94 428.408 2001.89 432.328 1990.01 432.328V436.328C2002.87 436.328 2013.91 432.045 2023.02 423.48L2020.28 420.566ZM2181.27 599.563L2179.27 599.542L2179.27 599.552V599.563H2181.27ZM2181.27 773V775H2183.27V773H2181.27ZM2098.07 773H2096.07V775H2098.07V773ZM2098.07 473V471H2096.07V473H2098.07ZM2177.36 473H2179.36V471H2177.36V473ZM2177.36 525.93H2175.36V527.93H2177.36V525.93ZM2180.88 525.93V527.93H2182.26L2182.75 526.641L2180.88 525.93ZM2214.28 484.523L2215.37 486.2L2215.38 486.194L2214.28 484.523ZM2325.61 482.766L2326.62 481.042L2325.61 482.766ZM2361.74 521.828L2359.95 522.734L2359.96 522.739L2361.74 521.828ZM2374.63 773V775H2376.63V773H2374.63ZM2291.43 773H2289.43V775H2291.43V773ZM2291.43 596.828L2289.43 596.814L2289.43 596.821V596.828H2291.43ZM2277.36 553.859L2275.89 555.208L2275.89 555.217L2277.36 553.859ZM2208.42 545.461L2207.44 543.716L2207.43 543.723L2208.42 545.461ZM2188.5 566.555L2186.72 565.63L2186.72 565.64L2188.5 566.555ZM2179.27 599.563V773H2183.27V599.563H2179.27ZM2181.27 771H2098.07V775H2181.27V771ZM2100.07 773V473H2096.07V773H2100.07ZM2098.07 475H2177.36V471H2098.07V475ZM2175.36 473V525.93H2179.36V473H2175.36ZM2177.36 527.93H2180.88V523.93H2177.36V527.93ZM2182.75 526.641C2189.24 509.589 2200.1 496.125 2215.37 486.2L2213.19 482.847C2197.21 493.234 2185.8 507.375 2179.01 525.218L2182.75 526.641ZM2215.38 486.194C2230.62 476.161 2249.16 471.094 2271.11 471.094V467.094C2248.53 467.094 2229.19 472.313 2213.18 482.853L2215.38 486.194ZM2271.11 471.094C2291.65 471.094 2309.45 475.583 2324.59 484.489L2326.62 481.042C2310.77 471.719 2292.25 467.094 2271.11 467.094V471.094ZM2324.59 484.489C2339.74 493.399 2351.52 506.127 2359.95 522.733L2363.52 520.923C2354.76 503.675 2342.46 490.361 2326.62 481.042L2324.59 484.489ZM2359.96 522.739C2368.38 539.195 2372.63 558.921 2372.63 581.984H2376.63C2376.63 558.434 2372.29 538.055 2363.52 520.917L2359.96 522.739ZM2372.63 581.984V773H2376.63V581.984H2372.63ZM2374.63 771H2291.43V775H2374.63V771ZM2293.43 773V596.828H2289.43V773H2293.43ZM2293.43 596.842C2293.56 578.137 2288.78 563.266 2278.83 552.502L2275.89 555.217C2284.96 565.026 2289.55 578.8 2289.43 596.814L2293.43 596.842ZM2278.84 552.511C2268.89 541.603 2255.22 536.234 2238.11 536.234V540.234C2254.32 540.234 2266.83 545.282 2275.89 555.207L2278.84 552.511ZM2238.11 536.234C2226.61 536.234 2216.37 538.709 2207.44 543.716L2209.4 547.205C2217.65 542.577 2227.2 540.234 2238.11 540.234V536.234ZM2207.43 543.723C2198.61 548.744 2191.7 556.07 2186.72 565.63L2190.27 567.479C2194.92 558.55 2201.3 551.813 2209.41 547.199L2207.43 543.723ZM2186.72 565.64C2181.86 575.094 2179.4 586.419 2179.27 599.542L2183.27 599.583C2183.4 586.925 2185.76 576.245 2190.27 567.469L2186.72 565.64Z" fill="white" mask="url(#path-3-outside-1_605_1088)"/>
</svg>
